<svg width="120" height="120" xmlns="http://www.w3.org/2000/svg"><defs><linearGradient x1="41.161%" y1="112.962%" x2="53.494%" y2="19.753%" id="a"><stop stop-color="#CE9865" offset="16%"/><stop stop-color="#C28B57" offset="46%"/><stop stop-color="#AC733C" offset="88%"/></linearGradient><linearGradient x1="45.752%" y1="122.671%" x2="52.282%" y2="10.954%" id="b"><stop stop-color="#DEAE79" offset="21%"/><stop stop-color="#DCAB76" offset="45%"/><stop stop-color="#D6A26E" offset="62%"/><stop stop-color="#CE9662" offset="74%"/></linearGradient><linearGradient x1="-96.172%" y1="49.942%" x2="91.494%" y2="49.942%" id="c"><stop stop-color="#DEB389" offset="16%"/><stop stop-color="#D9AC81" offset="25%"/><stop stop-color="#C29061" offset="65%"/><stop stop-color="#BA8555" offset="87%"/></linearGradient><linearGradient x1="39.64%" y1="9.543%" x2="82.679%" y2="111.862%" id="d"><stop stop-color="#CE9865" offset="0%"/><stop stop-color="#AC733C" offset="57%"/><stop stop-color="#976333" offset="91%"/></linearGradient><linearGradient x1="21.134%" y1="31.479%" x2="105.197%" y2="85.421%" id="e"><stop stop-color="#DEB389" offset="16%"/><stop stop-color="#D9AC81" offset="25%"/><stop stop-color="#C29061" offset="65%"/><stop stop-color="#BA8555" offset="87%"/></linearGradient><linearGradient x1="55.181%" y1="13.869%" x2="35.25%" y2="89.625%" id="f"><stop stop-color="#CE9865" offset="10%"/><stop stop-color="#BC844F" offset="47%"/><stop stop-color="#AC733C" offset="75%"/></linearGradient><linearGradient x1="39.68%" y1="53.503%" x2="78.293%" y2="39.689%" id="g"><stop stop-color="#CE9865" offset="48%"/><stop stop-color="#C8915D" offset="64%"/><stop stop-color="#B67E48" offset="89%"/><stop stop-color="#AC733C" offset="100%"/></linearGradient><linearGradient x1="62.774%" y1="87.198%" x2="29.691%" y2="-103.474%" id="h"><stop stop-color="#CE9865" offset="10%"/><stop stop-color="#BC844F" offset="47%"/><stop stop-color="#AC733C" offset="75%"/></linearGradient><linearGradient x1="53.806%" y1="59.702%" x2="42.508%" y2="30.915%" id="i"><stop stop-color="#CE9865" offset="10%"/><stop stop-color="#BC844F" offset="47%"/><stop stop-color="#AC733C" offset="75%"/></linearGradient><linearGradient x1="-39.202%" y1="58.661%" x2="148.921%" y2="40.45%" id="j"><stop stop-color="#E5B785" offset="15%"/><stop stop-color="#DEAE79" offset="52%"/><stop stop-color="#DCAC77" offset="57%"/><stop stop-color="#CE9662" offset="100%"/></linearGradient><linearGradient x1="-65.264%" y1="26.661%" x2="106.555%" y2="54.638%" id="k"><stop stop-color="#DEAE79" offset="21%"/><stop stop-color="#DCAB76" offset="45%"/><stop stop-color="#D6A26E" offset="62%"/><stop stop-color="#CE9662" offset="74%"/></linearGradient><linearGradient x1="43.493%" y1="74.046%" x2="54.209%" y2="-8.182%" id="l"><stop stop-color="#CE9865" offset="16%"/><stop stop-color="#C28B57" offset="46%"/><stop stop-color="#AC733C" offset="88%"/></linearGradient><linearGradient x1="33.928%" y1="62.055%" x2="73.404%" y2="32.891%" id="m"><stop stop-color="#E5B785" offset="15%"/><stop stop-color="#DEAE79" offset="45%"/><stop stop-color="#DBA975" offset="67%"/><stop stop-color="#D29C67" offset="92%"/><stop stop-color="#CE9662" offset="100%"/></linearGradient></defs><g fill="none" fill-rule="evenodd"><path fill="#ECF5FA" d="M0 0h120v120H0z"/><path fill-opacity=".05" fill="#0B79BF" d="M0 60h120v60H0z"/><path fill="url(#a)" fill-rule="nonzero" d="M52.197 34.307v36.798l29.667-23.549V15.06z" transform="translate(12 24)"/><path d="M93.524 62.495l.34-22.02-.361-1.182-29.306 19.014v1.019l9.287 17.776z" opacity=".5" fill="#A67043" fill-rule="nonzero"/><path fill="url(#b)" fill-rule="nonzero" d="M10.76 21.058v35.107l41.437 14.94V34.307z" transform="translate(12 24)"/><path d="M50.484 75.13l-.003 1.316.63.23v.802l-.626-.229v1.392a.87.87 0 0 0 .036.305.324.324 0 0 0 .196.182c.084.03.201.046.353.045l.273.967c-.282-.032-.734-.115-.978-.204-.284-.103-.493-.222-.627-.356a1.223 1.223 0 0 1-.298-.493c-.064-.196-.096-.487-.096-.872v-1.383l-.421-.154v-.802l.42.154v-1.316l1.14.415z" fill="#4D4D4F"/><path d="M56.314 82.387c-1.487.219-3.319-1.023-4.091-2.774-.772-1.751-.193-3.348 1.295-3.566 1.487-.22 3.319 1.023 4.091 2.774.773 1.75.193 3.347-1.295 3.566z" fill="#0B79BF"/><path d="M53.685 78.955c-.034.154-.1.253-.196.298-.096.044-.213.041-.35-.009a.8.8 0 0 1-.427-.356 1.06 1.06 0 0 1-.15-.546c0-.2.055-.344.164-.435.109-.09.254-.102.436-.036.293.107.467.323.523.648l-.26-.06c-.024-.173-.106-.285-.247-.336-.103-.038-.178-.021-.224.05a.542.542 0 0 0-.07.298c0 .134.024.246.073.336.048.09.116.151.203.183.132.049.22-.003.264-.156M54.766 79.142a.761.761 0 0 0-.073-.348.396.396 0 0 0-.225-.2c-.105-.038-.182-.026-.233.036-.05.063-.076.161-.076.295a.73.73 0 0 0 .08.36c.055.096.128.161.221.195m-.465-.134a1.066 1.066 0 0 1-.157-.543c0-.196.057-.338.173-.426.116-.088.269-.097.458-.028.18.066.328.183.444.352.116.17.174.356.174.559 0 .21-.06.356-.18.44-.12.083-.273.09-.458.023M57.27 80.727l-.318-.116v-.827c0-.171-.077-.285-.231-.342-.09-.032-.162-.026-.215.02-.054.044-.08.131-.08.26v.696l-.322-.118v-.826c0-.174-.073-.288-.217-.34-.088-.032-.162-.024-.222.024s-.09.132-.09.253v.696l-.312-.114v-1.327l.294.108v.282c.095-.171.245-.22.448-.146.198.073.326.223.386.451.108-.167.257-.216.448-.146.13.048.234.125.313.234a.57.57 0 0 1 .118.34v.938z" fill="#FFF"/><path d="M29.727 67.543v1.316l.63.23v.802l-.627-.229v1.392c0 .147.013.249.037.305a.323.323 0 0 0 .196.182c.083.03.201.046.352.045l.273.967c-.281-.032-.734-.115-.978-.204-.283-.103-.492-.222-.626-.356a1.222 1.222 0 0 1-.298-.493c-.065-.196-.097-.487-.097-.872v-1.383l-.42-.154v-.802l.42.154v-1.316l1.138.416zM32.802 71.803c-.157.008-.32.006-.49-.006-.23-.013-.377.004-.438.052a.248.248 0 0 0-.095.209c0 .104.032.2.094.29.063.089.155.155.276.2a.559.559 0 0 0 .353.02.362.362 0 0 0 .232-.177.826.826 0 0 0 .068-.377v-.211zm.19 1.707a2.01 2.01 0 0 1-.085-.233 2.084 2.084 0 0 1-.04-.234.927.927 0 0 1-.443.196c-.202.022-.436-.015-.702-.112-.355-.13-.624-.323-.808-.58a1.373 1.373 0 0 1-.276-.807c0-.263.066-.454.198-.575.132-.122.376-.158.732-.111.427.056.709.09.837.103.19.018.3.053.384-.047.089-.105-.01-.267-.072-.347a.668.668 0 0 0-.308-.21c-.186-.067-.307-.09-.398-.05-.16.07-.106.275-.264.217l-1.021-.372c.04-.206.05-.439.176-.589a.65.65 0 0 1 .334-.208c.105-.03.248-.03.43 0 .184.03.381.084.594.161.341.124.615.247.822.366.207.12.38.276.518.467.097.133.174.3.23.498.056.2.084.381.084.544v2.26l-.922-.337zM42.958 75.515c-.157.008-.32.006-.49-.005-.23-.013-.377.004-.438.051a.248.248 0 0 0-.095.21c0 .104.031.2.094.29.063.088.154.155.276.199a.559.559 0 0 0 .353.021.362.362 0 0 0 .232-.177.826.826 0 0 0 .068-.377v-.212zm.19 1.708a1.99 1.99 0 0 1-.085-.233 2.052 2.052 0 0 1-.04-.234.927.927 0 0 1-.444.196c-.2.022-.435-.016-.701-.113-.355-.129-.624-.322-.807-.58a1.373 1.373 0 0 1-.277-.807c0-.262.065-.454.198-.575.132-.12.376-.158.732-.11.427.055.709.09.837.102.19.019.3.053.384-.046.089-.105-.01-.267-.072-.347a.668.668 0 0 0-.308-.21c-.187-.068-.307-.09-.398-.051-.16.07-.106.275-.264.218l-1.021-.372c.04-.206.05-.439.176-.59a.651.651 0 0 1 .334-.208c.105-.029.248-.029.43.001.183.03.381.083.594.16.34.125.615.247.822.367.207.12.38.275.518.467.097.133.174.299.23.498.056.2.084.38.084.543v2.26l-.922-.336zM34.129 69.153l.998.365v2.734l1.294-.944 1.187.434-1.192.84 1.178 2.613-1.171-.428-.728-1.712-.592.425v.804l-.974-.356z" fill="#4D4D4F"/><path d="M39.512 73.816c-.022-.264-.081-.422-.177-.568a.757.757 0 0 0-.38-.304c-.18-.066-.325-.036-.433.092-.069.079-.113.171-.131.37l1.121.41zm1.113 1.503c-.145.429-.398.54-.64.602-.242.062-.59.01-1.043-.155-.394-.144-.703-.322-.929-.533a2.48 2.48 0 0 1-.56-.82 2.62 2.62 0 0 1-.223-1.072c0-.54.149-.923.446-1.148.298-.225.708-.242 1.232-.05.425.155.761.353 1.007.592.246.24.434.525.562.856.13.331.193.725.193 1.18v.15l-2.282-.835c.02.22.07.397.148.53.11.19.231.344.409.408.4.143.55.047.62-.14l1.06.435zM44.29 72.866l1.03.377v4.765l-1.03-.377zM46.84 77.724c.107.187.242.31.404.369.164.06.3.037.405-.07.105-.107.157-.508.157-.829 0-.299-.053-.62-.159-.806-.106-.185-.238-.306-.394-.364-.166-.06-.303-.036-.411.073-.109.109-.163.395-.163.698m-.682-1.549c.306-.23.719-.25 1.239-.06.595.218 1.044.583 1.348 1.096.244.412.366.855.366 1.327 0 .532-.151.912-.454 1.14-.303.229-.722.245-1.257.05a2.488 2.488 0 0 1-1.158-.846 2.56 2.56 0 0 1-.543-1.572" fill="#4D4D4F"/><path d="M64.197 59.326v-1.019l-14.565-4.654-25.345-4.683-1.528 2.37V66.66L55.906 79.31z" opacity=".48" fill="#A67043" fill-rule="nonzero"/><path fill="url(#c)" fill-rule="nonzero" d="M.226 24.178L0 23.888l12.457-5.829.849 2.603z" transform="translate(12 24)"/><path fill="url(#d)" fill-rule="nonzero" d="M10.76 21.058l28.3 9.267V2.999z" transform="translate(12 24)"/><path fill="url(#e)" fill-rule="nonzero" d="M10.76 21.058L0 23.888 29.554 6.112l9.507-3.113z" transform="translate(12 24)"/><path fill="url(#f)" fill-rule="nonzero" d="M81.864 15.06L39.06 3v27.325l13.136 3.982z" transform="translate(12 24)"/><path fill="url(#g)" fill-rule="nonzero" d="M81.864 15.06L39.06 3 49.82 0l43.595 11.325z" transform="translate(12 24)"/><path fill="url(#h)" fill-rule="nonzero" d="M66.578 31.768l-14.381 2.54.056.452L66.238 50.5l.849-3.056z" transform="translate(12 24)"/><path fill="url(#i)" fill-rule="nonzero" d="M66.578 31.768l.509 15.675-.849 3.056 29.554-23.888z" transform="translate(12 24)"/><path fill="url(#j)" fill-rule="nonzero" d="M52.197 34.307L66.35 50.16l29.44-23.548L81.865 15.06z" transform="translate(12 24)"/><path fill="url(#k)" fill-rule="nonzero" d="M.693 36.691l.085.227 41.784 15.236-14.006-16.743z" transform="translate(12 24)"/><path fill="url(#l)" fill-rule="nonzero" d="M52.197 34.314l-23.64 1.097 14.005 16.743 9.691-17.387z" transform="translate(12 24)"/><path fill="url(#m)" fill-rule="nonzero" d="M10.76 21.058L.68 36.684l41.698 15.06 9.819-17.437z" transform="translate(12 24)"/></g></svg>